<?xml version="1.0" encoding="UTF-8"?>
<svg width="24" height="24" viewBox="0 0 24 24" xmlns="http://www.w3.org/2000/svg">
    <circle cx="12" cy="12" r="3" fill="none" stroke="#333" stroke-width="2"/>
    <path d="M19.4 15c-.1.3-.2.6-.4.9l1.9 1.5-3 5.2-2.5-.8c-.5.4-1.1.7-1.7.9l-.7 2.6h-5.8l-.7-2.6c-.6-.2-1.2-.5-1.7-.9l-2.5.8-3-5.2 1.9-1.5c-.1-.3-.2-.6-.3-.9 0-.3 0-.6 0-.9-.1-.3-.2-.6-.3-.9L2.6 12l3-5.2 2.5.8c.5-.4 1.1-.7 1.7-.9L10.5 4h5.8l.7 2.6c.6.2 1.2.5 1.7.9l2.5-.8 3 5.2-1.9 1.5c.1.3.2.6.3.9 0 .3 0 .6 0 .9z" fill="none" stroke="#333" stroke-width="1"/>
</svg>


